# xmcd
#
# Track frame offsets:
#	150
#	31875
#	51705
#	65077
#	83442
#	96540
#	123455
#	148207
#	163384
#	179880
#	193577
#	203117
#	220437
#	234537
#	250230
#	287775
#
# Disc length: 4050 seconds
#
# Revision: 2
# Processed by: cddbd v1.5.2PL0 Copyright (c) Steve Scherf et al.
# Submitted via: audiograbber 1.81.02
#
DISCID=0a0fd010
DTITLE=D C and Company - Somethin's Happenin'
DYEAR=1997
DGENRE=Blues
TTITLE0=Every Time
TTITLE1=Walk of Shame
TTITLE2=How 'bout That
TTITLE3=Watch Them Fall
TTITLE4=Flowers
TTITLE5=Somethin's Happenin'
TTITLE6=Cross Roads
TTITLE7=Rescue Me
TTITLE8=Bottom Shelf Blues
TTITLE9=Walk Away
TTITLE10=Old Love
TTITLE11=Part of You
TTITLE12=Don't Talk to Me
TTITLE13=Mary
TTITLE14=They Say
TTITLE15=Somethin's Happenin' (Short)
EXTD=
EXTT0=
EXTT1=
EXTT2=
EXTT3=
EXTT4=
EXTT5=
EXTT6=
EXTT7=
EXTT8=
EXTT9=
EXTT10=
EXTT11=
EXTT12=
EXTT13=
EXTT14=
EXTT15=
PLAYORDER=
